<svg xmlns="http://www.w3.org/2000/svg" width="1706.667" height="1706.667" preserveAspectRatio="xMidYMid meet" version="1.0" viewBox="0 0 1280 1280"><metadata>Created by potrace 1.15, written by Peter Selinger 2001-2017</metadata><g fill="#9c27b0" stroke="none"><path d="M295 10358 c6 -895 13 -2663 20 -5173 3 -1056 8 -2066 10 -2245 2 -179 5 -616 5 -972 l0 -648 958 0 958 0 31 33 c17 17 70 82 118 142 l86 110 -5 2515 c-4 1383 -9 3070 -12 3748 l-6 1232 3488 -3 c3190 -3 3495 -4 3561 -19 349 -80 530 -259 585 -580 18 -104 17 -770 -1 -853 -30 -138 -82 -245 -155 -324 -51 -55 -170 -127 -258 -157 -53 -17 -117 -29 -187 -35 -58 -4 -1612 -8 -3453 -8 l-3348 -1 0 -378 c0 -208 3 -629 7 -935 l6 -557 3431 -3 3431 -2 83 -23 c160 -43 318 -172 386 -315 65 -138 61 -30 58 -1742 l-4 -1560 101 -134 c55 -74 106 -138 113 -143 7 -4 443 -8 969 -8 l956 0 6 1637 c4 1056 3 1676 -4 1747 -18 206 -61 402 -132 601 -94 264 -258 540 -469 792 -43 51 -78 95 -78 99 0 3 29 38 64 78 363 408 578 892 626 1411 13 143 13 878 0 1020 -42 448 -191 858 -434 1199 -208 290 -516 571 -836 763 -335 201 -661 313 -1130 390 -98 16 -413 18 -4828 20 l-4723 3 6 -722z" transform="translate(0.000000,1280.000000) scale(0.100000,-0.100000)"/></g></svg>